<?xml version="1.0" encoding="utf-8"?>
<!-- Generator: Adobe Illustrator 16.0.0, SVG Export Plug-In . SVG Version: 6.00 Build 0)  -->
<!DOCTYPE svg PUBLIC "-//W3C//DTD SVG 1.1//EN" "http://www.w3.org/Graphics/SVG/1.1/DTD/svg11.dtd">
<svg version="1.1" id="Layer_1" xmlns="http://www.w3.org/2000/svg" xmlns:xlink="http://www.w3.org/1999/xlink" x="0px" y="0px"
	 width="100.004px" height="80.004px" viewBox="0 0 100.004 80.004" enable-background="new 0 0 100.004 80.004"
	 xml:space="preserve">
<path id="Path_490" fill="#FFFFFF" d="M331-40h-80c-5.498,0.003-9.953,4.462-9.951,9.96c0,0.013,0,0.027,0,0.04L241,30
	c0,5.523,4.477,10,10,10h80c5.522,0,10-4.477,10-10v-60C341-35.523,336.523-40,331-40z M331-20L291,5l-40-25v-10l40,25l40-25V-20z"
	/>
<path fill="#FFFFFF" d="M28.313,26.668H16.125v13.334h12.188v40.002h20.313V40.002h14.799l1.451-13.334h-16.25v-5.557
	c0-3.184,0.778-4.444,4.531-4.444h11.719V0H49.403c-14.606,0-21.09,5.276-21.09,15.385V26.668z"/>
</svg>
