<?xml version="1.0" encoding="utf-8"?>
<!-- Generator: Adobe Illustrator 16.0.0, SVG Export Plug-In . SVG Version: 6.00 Build 0)  -->
<!DOCTYPE svg PUBLIC "-//W3C//DTD SVG 1.1//EN" "http://www.w3.org/Graphics/SVG/1.1/DTD/svg11.dtd">
<svg version="1.1" id="Layer_1" xmlns="http://www.w3.org/2000/svg" xmlns:xlink="http://www.w3.org/1999/xlink" x="0px" y="0px"
	 width="100.004px" height="80.004px" viewBox="0 0 100.004 80.004" enable-background="new 0 0 100.004 80.004"
	 xml:space="preserve">
<path id="Path_490" fill="#FFFFFF" d="M331-40h-80c-5.498,0.003-9.953,4.462-9.951,9.96c0,0.013,0,0.027,0,0.04L241,30
	c0,5.523,4.477,10,10,10h80c5.522,0,10-4.477,10-10v-60C341-35.523,336.523-40,331-40z M331-20L291,5l-40-25v-10l40,25l40-25V-20z"
	/>
<path fill="#FFFFFF" d="M134.646-13.332h-12.188V0.002h12.188v40.002h20.313V0.002h14.799l1.451-13.334h-16.25v-5.557
	c0-3.184,0.778-4.444,4.531-4.444h11.719V-40h-15.472c-14.606,0-21.091,5.276-21.091,15.385V-13.332z"/>
<path fill="#E5E3E3" d="M191.817,53.805h-48.916c-4.659,0-8.662,2.532-10.48,6.046h3.957c4.605,0,5.7,1.961,5.7,3.509
	c0,2.199-1.642,4.563-7.416,4.563h-3.286v4.073h2.442c4.606,0,5.702,1.967,5.702,3.515c0,2.194-1.644,4.565-7.419,4.565h-0.726
	v23.583c0,5.507,5.16,9.719,11.525,9.719h38.363c3.429,3.475,14.13,14.126,14.13,14.126l-6.753-14.126h3.176
	c6.363,0,11.525-4.464,11.525-9.971V63.776C203.342,58.27,198.18,53.805,191.817,53.805z M148.461,92.723h-7.39l2.017-8.078h7.093
	c4.601,0,5.694,1.964,5.694,3.518C155.875,90.356,154.235,92.723,148.461,92.723z M151.204,80.076h-7.392l2.019-8.08h7.092
	c4.599,0,5.697,1.967,5.697,3.515C158.62,77.705,156.979,80.076,151.204,80.076z M153.764,67.923h-7.387l2.014-8.072h7.091
	c4.604,0,5.697,1.961,5.697,3.509C161.179,65.559,159.538,67.923,153.764,67.923z M168.434,87.8h-7.391l2.018-8.074h7.091
	c4.603,0,5.696,1.96,5.696,3.509C175.848,85.429,174.208,87.8,168.434,87.8z M171.185,75.146h-7.389l2.02-8.079h7.091
	c4.599,0,5.697,1.968,5.697,3.517C178.604,72.783,176.96,75.146,171.185,75.146z"/>
<path fill="#FFFFFF" d="M180.269,47.502h-59.288c-6.365,0-11.525,4.464-11.525,9.971v36.641c0,5.507,5.16,9.971,11.525,9.971h3.176
	l-6.717,14.704c0,0,10.665-11.231,14.092-14.704h48.737c6.364,0,11.525-4.464,11.525-9.971V57.473
	C191.794,51.966,186.633,47.502,180.269,47.502z M132.101,80.076h-7.39l2.017-8.08h7.09c4.606,0,5.702,1.967,5.702,3.515
	C139.52,77.705,137.876,80.076,132.101,80.076z M134.662,67.923h-7.391l2.017-8.072h7.09c4.605,0,5.7,1.961,5.7,3.509
	C142.078,65.559,140.436,67.923,134.662,67.923z M148.461,92.723h-7.39l2.017-8.078h7.093c4.601,0,5.694,1.964,5.694,3.518
	C155.875,90.356,154.235,92.723,148.461,92.723z M151.204,80.076h-7.392l2.019-8.08h7.092c4.599,0,5.697,1.967,5.697,3.515
	C158.62,77.705,156.979,80.076,151.204,80.076z M153.764,67.923h-7.387l2.014-8.072h7.091c4.604,0,5.697,1.961,5.697,3.509
	C161.179,65.559,159.538,67.923,153.764,67.923z M168.434,87.8h-7.391l2.018-8.074h7.091c4.603,0,5.696,1.96,5.696,3.509
	C175.848,85.429,174.208,87.8,168.434,87.8z M171.185,75.146h-7.389l2.02-8.079h7.091c4.599,0,5.697,1.968,5.697,3.517
	C178.604,72.783,176.96,75.146,171.185,75.146z"/>
<path fill="#FFFFFF" d="M125.305-102.855c-3.592,1.596-7.453,2.669-11.506,3.154c4.14-2.479,7.314-6.405,8.808-11.084
	c-3.869,2.296-8.157,3.965-12.721,4.863c-3.651-3.894-8.86-6.325-14.621-6.325c-12.932,0-22.437,12.066-19.517,24.592
	c-16.641-0.834-31.401-8.808-41.284-20.93c-5.248,9.003-2.721,20.783,6.196,26.746c-3.278-0.104-6.37-1.001-9.068-2.503
	c-0.218,9.281,6.432,17.958,16.066,19.893c-2.818,0.768-5.907,0.941-9.047,0.341c2.547,7.958,9.941,13.745,18.714,13.911
	c-8.422,6.604-19.032,9.552-29.658,8.296c8.866,5.689,19.397,9.003,30.707,9.003c37.19,0,58.207-31.412,56.935-59.587
	C119.222-95.312,122.619-98.839,125.305-102.855z"/>
<g>
	<path d="M-382.616-253.016l0.002-0.001l-0.06-0.497c0-0.009-0.001-0.015-0.002-0.024c-0.001-0.007-0.001-0.014-0.003-0.021
		l-0.225-1.869c-0.045-0.375-0.097-0.802-0.156-1.29l-0.047-0.388l-0.096,0.012c-2.364-13.447-8.859-26.208-18.919-37.104
		c-10.013-10.844-23.021-19.406-37.618-24.76c-12.507-4.587-25.777-6.914-39.441-6.914c-18.447,0-36.362,4.338-51.809,12.546
		c-29.786,15.826-47.353,44.916-44.757,74.111c1.344,15.107,7.263,29.487,17.116,41.588c9.274,11.389,21.82,20.58,36.281,26.579
		c8.892,3.688,17.683,5.426,26.991,7.267l1.09,0.215c2.563,0.507,3.252,1.204,3.43,1.48c0.329,0.513,0.157,1.522,0.025,2.079
		c-0.122,0.513-0.247,1.025-0.373,1.538c-1,4.076-2.033,8.291-1.221,12.938c0.934,5.342,4.269,8.405,9.152,8.406c0,0,0,0,0.001,0
		c5.252,0,11.23-3.523,15.186-5.854l0.528-0.311c9.437-5.542,18.327-11.793,25.017-16.62c14.641-10.563,31.235-22.535,43.676-38.024
		C-386.319-213.535-380.418-233.581-382.616-253.016z M-515.637-223.46h-16.722c-2.527,0-4.576-2.048-4.576-4.576v-35.1
		c0-2.527,2.048-4.576,4.576-4.576c2.527,0,4.576,2.048,4.576,4.576v30.524h12.146c2.527,0,4.576,2.049,4.576,4.576
		C-511.061-225.509-513.11-223.46-515.637-223.46z M-498.192-228.16c0,2.527-2.049,4.576-4.576,4.576
		c-2.527,0-4.576-2.049-4.576-4.576v-35.1c0-2.527,2.049-4.576,4.576-4.576c2.527,0,4.576,2.048,4.576,4.576V-228.16z
		 M-456.831-228.16c0,1.982-1.276,3.74-3.163,4.352c-0.465,0.151-0.942,0.224-1.412,0.224c-1.438,0-2.826-0.679-3.704-1.888
		l-16.478-22.694v20.006c0,2.527-2.048,4.576-4.576,4.576s-4.576-2.048-4.576-4.576v-34.096c0-1.982,1.276-3.74,3.163-4.352
		c1.886-0.612,3.952,0.059,5.116,1.664l16.478,22.694v-21.01c0-2.527,2.048-4.576,4.576-4.576s4.576,2.048,4.576,4.576V-228.16z
		 M-423.489-224.305h-22.646c-2.527,0-4.576-2.049-4.576-4.576v-17.549v-17.551c0-2.527,2.048-4.576,4.576-4.576h21.944
		c2.527,0,4.576,2.049,4.576,4.576c0,2.527-2.049,4.576-4.576,4.576h-17.368v8.399h14.095c2.527,0,4.576,2.049,4.576,4.576
		c0,2.527-2.049,4.576-4.576,4.576h-14.095v8.398h18.071c2.527,0,4.576,2.049,4.576,4.576
		C-418.913-226.354-420.961-224.305-423.489-224.305z"/>
</g>
<path fill="#FFFFFF" d="M90.577,31.04L90.577,31.04l-0.024-0.211c-0.001-0.003-0.001-0.006-0.001-0.01
	c0-0.003-0.001-0.006-0.002-0.009l-0.095-0.789c-0.019-0.159-0.04-0.339-0.065-0.545l-0.02-0.165l-0.041,0.006
	c-0.999-5.682-3.743-11.073-7.993-15.677c-4.23-4.582-9.727-8.199-15.894-10.462C61.157,1.241,55.55,0.258,49.777,0.258
	c-7.794,0-15.363,1.833-21.89,5.301C15.303,12.245,7.881,24.536,8.978,36.871c0.568,6.383,3.068,12.458,7.231,17.571
	c3.918,4.812,9.219,8.694,15.329,11.229c3.757,1.558,7.471,2.292,11.404,3.069l0.46,0.092c1.083,0.214,1.374,0.509,1.449,0.625
	c0.139,0.217,0.066,0.644,0.01,0.878c-0.051,0.217-0.104,0.434-0.157,0.65c-0.422,1.722-0.859,3.503-0.516,5.466
	c0.395,2.257,1.804,3.552,3.867,3.552c0,0,0,0,0,0c2.219,0,4.745-1.488,6.417-2.474l0.223-0.131
	c3.986-2.342,7.743-4.982,10.57-7.022c6.186-4.463,13.196-9.521,18.453-16.065C89.012,47.721,91.505,39.251,90.577,31.04z
	 M32.029,45.201H17.708V22.274h5.205v18.572h9.116V45.201z M40.294,45.201H35.09V22.274h5.205V45.201z M63.766,45.201h-5.443
	l-4.898-8.845c-1.36-2.449-2.857-5.408-3.979-8.096l-0.102,0.034c0.136,3.027,0.204,6.259,0.204,10.001v6.905h-4.762V22.274h6.055
	l4.763,8.401c1.36,2.415,2.721,5.272,3.741,7.858h0.103c-0.341-3.027-0.442-6.123-0.442-9.559v-6.701h4.763V45.201z M82.883,45.201
	H68.255V22.274h14.151v4.252h-8.947v4.762h8.437v4.219h-8.437v5.442h9.424V45.201z"/>
</svg>
