<svg id="资源_1" data-name="资源 1" xmlns="http://www.w3.org/2000/svg" width="102.533" height="102.278" viewBox="0 0 102.533 102.278">
  <g id="图层_1" data-name="图层 1" transform="translate(0 0)">
    <path id="Path_484" data-name="Path 484" d="M94.988,50.9A45.39,45.39,0,0,0,49.56,5.505a45.986,45.986,0,0,0-6.851.559A26.065,26.065,0,0,0,0,25.911,25.544,25.544,0,0,0,5.213,41.438,45.353,45.353,0,0,0,49.56,96.286a46.236,46.236,0,0,0,9.432-.97A25.839,25.839,0,1,0,94.4,57.669a45.39,45.39,0,0,0,.593-6.773Zm-24.24,19.7a17.612,17.612,0,0,1-7.857,5.958,31.278,31.278,0,0,1-12.213,2.16A29.491,29.491,0,0,1,36.64,75.769a18.059,18.059,0,0,1-6.367-5.7,12.064,12.064,0,0,1-2.458-6.926A4.505,4.505,0,0,1,29.3,59.832a5.176,5.176,0,0,1,3.724-1.378,4.58,4.58,0,0,1,3.128,1.08,8.192,8.192,0,0,1,2.16,3.2A20.889,20.889,0,0,0,40.7,66.944a9.532,9.532,0,0,0,3.724,2.793,14.634,14.634,0,0,0,6.069,1.08,14.3,14.3,0,0,0,8.378-2.2,6.553,6.553,0,0,0,3.091-5.474A5.474,5.474,0,0,0,60.21,58.9a11.171,11.171,0,0,0-4.357-2.458,70.749,70.749,0,0,0-7.447-1.825,58.607,58.607,0,0,1-10.351-3.128,16.458,16.458,0,0,1-6.591-4.841,11.99,11.99,0,0,1-2.458-7.671,12.511,12.511,0,0,1,2.569-7.745,16.086,16.086,0,0,1,7.447-5.176,32.73,32.73,0,0,1,11.506-1.825,31.613,31.613,0,0,1,9.048,1.192,21.038,21.038,0,0,1,6.4,3.2A14.075,14.075,0,0,1,69.7,32.836a9.085,9.085,0,0,1,1.229,4.245,5.089,5.089,0,0,1-5.176,4.952,4.431,4.431,0,0,1-3.016-.894,13.07,13.07,0,0,1-2.271-3.016,13.628,13.628,0,0,0-3.724-4.654,11.655,11.655,0,0,0-7.037-1.676,12.958,12.958,0,0,0-7.261,1.825,5.176,5.176,0,0,0-2.755,4.357,4.245,4.245,0,0,0,.931,2.755A8.155,8.155,0,0,0,43.23,42.7a22.64,22.64,0,0,0,3.314,1.3l5.548,1.34c3.239.707,6.181,1.489,8.788,2.309a28.075,28.075,0,0,1,6.7,3.053A13.591,13.591,0,0,1,71.9,55.252a14.038,14.038,0,0,1,1.527,6.777A14.894,14.894,0,0,1,70.747,70.593Z" transform="translate(0 -0.057)" fill="#fff"/>
  </g>
</svg>
