<svg xmlns="http://www.w3.org/2000/svg" width="102.278" height="102.278" viewBox="0 0 102.278 102.278">
  <path id="Path_491" data-name="Path 491" d="M26.6,50.292A85.572,85.572,0,0,0,64.043,87.709l12.5-12.529a5.7,5.7,0,0,1,5.767-1.392A64.683,64.683,0,0,0,102.6,77.026a5.662,5.662,0,0,1,5.682,5.682V102.6a5.662,5.662,0,0,1-5.682,5.682A96.588,96.588,0,0,1,6,11.682,5.681,5.681,0,0,1,11.682,6H31.57a5.662,5.662,0,0,1,5.682,5.682A64.683,64.683,0,0,0,40.49,31.967,5.7,5.7,0,0,1,39.1,37.735Z" transform="translate(-6 -6)" fill="#fff"/>
</svg>
