<svg id="资源_2" data-name="资源 2" xmlns="http://www.w3.org/2000/svg" width="104.533" height="95.441" viewBox="0 0 104.533 95.441">
  <g id="图层_1" data-name="图层 1">
    <path id="Path_488" data-name="Path 488" d="M104.533,44.644C104.533,20.036,79.924,0,52.321,0,23.03,0,0,20.036,0,44.644S23.03,89.289,52.321,89.289a78.4,78.4,0,0,0,18.457-3.1l16.878,9.256L83.028,80.033C95.332,70.778,104.533,58.528,104.533,44.644ZM26.9,54.063a8.6,8.6,0,1,1,8.6-8.6,8.6,8.6,0,0,1-8.6,8.6Zm25.371,0a8.6,8.6,0,1,1,6.118-2.5A8.6,8.6,0,0,1,52.267,54.063Zm25.426,0a8.6,8.6,0,1,1,8.6-8.6A8.6,8.6,0,0,1,77.692,54.063Z" fill="#fff" fill-rule="evenodd"/>
  </g>
</svg>
